<svg xmlns="http://www.w3.org/2000/svg" xmlns:xlink="http://www.w3.org/1999/xlink" width="406" zoomAndPan="magnify" viewBox="0 0 304.5 58.499998" height="78" preserveAspectRatio="xMidYMid meet" version="1.0"><defs><g/></defs><path stroke-linecap="round" transform="matrix(2.416843, 0, 0, 2.416843, 1.042378, 0)" fill="none" stroke-linejoin="round" d="M 17.656282 12.000739 L 21.000326 12.000739 M 3.000025 12.000739 L 6.342453 12.000739 M 11.999368 6.343825 L 11.999368 2.999781 M 11.999368 21.000082 L 11.999368 17.657654 " stroke="#e89b43" stroke-width="1.5" stroke-opacity="1" stroke-miterlimit="4"/><path stroke-linecap="round" transform="matrix(2.416843, 0, 0, 2.416843, 1.042378, 0)" fill="none" stroke-linejoin="round" d="M 15.999614 8.000493 L 18.364204 5.635903 M 5.636147 18.36396 L 8.000737 15.99937 M 8.000737 8.000493 L 5.636147 5.635903 M 18.364204 18.36396 L 15.999614 15.99937 " stroke="#040b59" stroke-width="1.5" stroke-opacity="1" stroke-miterlimit="4"/><g fill="#e89b43" fill-opacity="1"><g transform="translate(60.290164, 36.339927)"><g><path d="M 7.890625 0.3125 C 6.566406 0.3125 5.421875 0.0859375 4.453125 -0.359375 C 3.492188 -0.804688 2.75 -1.4375 2.21875 -2.25 C 1.695312 -3.0625 1.425781 -4 1.40625 -5.0625 L 3.484375 -5.0625 C 3.515625 -4.007812 3.929688 -3.179688 4.734375 -2.578125 C 5.546875 -1.972656 6.597656 -1.671875 7.890625 -1.671875 C 9.046875 -1.671875 9.960938 -1.894531 10.640625 -2.34375 C 11.328125 -2.800781 11.671875 -3.441406 11.671875 -4.265625 C 11.671875 -5.035156 11.34375 -5.648438 10.6875 -6.109375 C 10.03125 -6.578125 8.957031 -6.984375 7.46875 -7.328125 C 5.4375 -7.804688 3.945312 -8.425781 3 -9.1875 C 2.0625 -9.957031 1.59375 -10.976562 1.59375 -12.25 C 1.59375 -13.644531 2.125 -14.75 3.1875 -15.5625 C 4.25 -16.375 5.679688 -16.78125 7.484375 -16.78125 C 9.335938 -16.78125 10.800781 -16.316406 11.875 -15.390625 C 12.957031 -14.472656 13.503906 -13.210938 13.515625 -11.609375 L 11.46875 -11.609375 C 11.445312 -12.597656 11.078125 -13.378906 10.359375 -13.953125 C 9.648438 -14.523438 8.691406 -14.8125 7.484375 -14.8125 C 6.304688 -14.8125 5.382812 -14.578125 4.71875 -14.109375 C 4.050781 -13.648438 3.71875 -13.03125 3.71875 -12.25 C 3.71875 -11.570312 4.023438 -11 4.640625 -10.53125 C 5.265625 -10.070312 6.378906 -9.644531 7.984375 -9.25 C 10.085938 -8.738281 11.585938 -8.09375 12.484375 -7.3125 C 13.378906 -6.53125 13.828125 -5.535156 13.828125 -4.328125 C 13.828125 -2.898438 13.285156 -1.769531 12.203125 -0.9375 C 11.128906 -0.101562 9.691406 0.3125 7.890625 0.3125 Z M 7.890625 0.3125 "/></g></g></g><g fill="#e89b43" fill-opacity="1"><g transform="translate(75.521182, 36.339927)"><g><path d="M 7.703125 0.3125 C 6.429688 0.3125 5.304688 0.0351562 4.328125 -0.515625 C 3.359375 -1.066406 2.597656 -1.828125 2.046875 -2.796875 C 1.492188 -3.773438 1.21875 -4.882812 1.21875 -6.125 C 1.21875 -7.375 1.492188 -8.476562 2.046875 -9.4375 C 2.597656 -10.394531 3.359375 -11.148438 4.328125 -11.703125 C 5.304688 -12.253906 6.429688 -12.53125 7.703125 -12.53125 C 8.972656 -12.53125 10.09375 -12.253906 11.0625 -11.703125 C 12.039062 -11.148438 12.800781 -10.394531 13.34375 -9.4375 C 13.894531 -8.476562 14.171875 -7.375 14.171875 -6.125 C 14.171875 -4.882812 13.894531 -3.773438 13.34375 -2.796875 C 12.800781 -1.828125 12.039062 -1.066406 11.0625 -0.515625 C 10.09375 0.0351562 8.972656 0.3125 7.703125 0.3125 Z M 3.203125 -6.125 C 3.203125 -5.226562 3.394531 -4.4375 3.78125 -3.75 C 4.164062 -3.070312 4.691406 -2.539062 5.359375 -2.15625 C 6.035156 -1.78125 6.816406 -1.59375 7.703125 -1.59375 C 8.578125 -1.59375 9.351562 -1.78125 10.03125 -2.15625 C 10.707031 -2.539062 11.238281 -3.070312 11.625 -3.75 C 12.007812 -4.4375 12.203125 -5.226562 12.203125 -6.125 C 12.203125 -7.019531 12.007812 -7.800781 11.625 -8.46875 C 11.238281 -9.144531 10.707031 -9.675781 10.03125 -10.0625 C 9.351562 -10.445312 8.578125 -10.640625 7.703125 -10.640625 C 6.816406 -10.640625 6.035156 -10.445312 5.359375 -10.0625 C 4.691406 -9.675781 4.164062 -9.144531 3.78125 -8.46875 C 3.394531 -7.800781 3.203125 -7.019531 3.203125 -6.125 Z M 3.203125 -6.125 "/></g></g></g><g fill="#e89b43" fill-opacity="1"><g transform="translate(90.916993, 36.339927)"><g><path d="M 2.1875 0 L 2.1875 -17.421875 L 4.171875 -17.421875 L 4.171875 0 Z M 2.1875 0 "/></g></g></g><g fill="#e89b43" fill-opacity="1"><g transform="translate(97.273064, 36.339927)"><g><path d="M 6.1875 0.1875 C 4.71875 0.1875 3.566406 -0.144531 2.734375 -0.8125 C 1.898438 -1.476562 1.484375 -2.382812 1.484375 -3.53125 C 1.484375 -4.644531 1.867188 -5.53125 2.640625 -6.1875 C 3.410156 -6.851562 4.429688 -7.1875 5.703125 -7.1875 L 10.6875 -7.1875 L 10.6875 -7.625 C 10.6875 -8.582031 10.390625 -9.332031 9.796875 -9.875 C 9.203125 -10.414062 8.382812 -10.6875 7.34375 -10.6875 C 6.5625 -10.6875 5.878906 -10.507812 5.296875 -10.15625 C 4.710938 -9.800781 4.320312 -9.328125 4.125 -8.734375 L 2.125 -8.734375 C 2.382812 -9.910156 2.984375 -10.835938 3.921875 -11.515625 C 4.859375 -12.191406 5.992188 -12.53125 7.328125 -12.53125 C 8.390625 -12.53125 9.320312 -12.328125 10.125 -11.921875 C 10.925781 -11.523438 11.550781 -10.96875 12 -10.25 C 12.445312 -9.539062 12.671875 -8.710938 12.671875 -7.765625 L 12.671875 0 L 11.046875 0 L 10.828125 -1.703125 C 9.710938 -0.441406 8.164062 0.1875 6.1875 0.1875 Z M 3.46875 -3.5625 C 3.46875 -2.957031 3.71875 -2.472656 4.21875 -2.109375 C 4.71875 -1.753906 5.398438 -1.578125 6.265625 -1.578125 C 7.109375 -1.578125 7.859375 -1.738281 8.515625 -2.0625 C 9.179688 -2.394531 9.707031 -2.851562 10.09375 -3.4375 C 10.488281 -4.019531 10.695312 -4.6875 10.71875 -5.4375 L 5.765625 -5.4375 C 5.085938 -5.4375 4.535156 -5.265625 4.109375 -4.921875 C 3.679688 -4.585938 3.46875 -4.132812 3.46875 -3.5625 Z M 3.46875 -3.5625 "/></g></g></g><g fill="#e89b43" fill-opacity="1"><g transform="translate(111.868484, 36.339927)"><g><path d="M 2.1875 0 L 2.1875 -12.21875 L 3.8125 -12.21875 L 4.046875 -10.109375 C 4.484375 -10.835938 5.023438 -11.367188 5.671875 -11.703125 C 6.328125 -12.046875 7.175781 -12.21875 8.21875 -12.21875 L 9.328125 -12.21875 L 9.328125 -10.390625 L 8.125 -10.390625 C 7.382812 -10.390625 6.71875 -10.238281 6.125 -9.9375 C 5.53125 -9.632812 5.054688 -9.140625 4.703125 -8.453125 C 4.347656 -7.765625 4.171875 -6.835938 4.171875 -5.671875 L 4.171875 0 Z M 2.1875 0 "/></g></g></g><g fill="#040b59" fill-opacity="1"><g transform="translate(122.140431, 36.339927)"><g><path d="M 2.1875 0 L 2.1875 -12.21875 L 4.171875 -12.21875 L 4.171875 0 Z M 1.578125 -15.78125 C 1.578125 -16.226562 1.722656 -16.597656 2.015625 -16.890625 C 2.304688 -17.179688 2.691406 -17.328125 3.171875 -17.328125 C 3.660156 -17.328125 4.046875 -17.179688 4.328125 -16.890625 C 4.609375 -16.597656 4.75 -16.226562 4.75 -15.78125 C 4.75 -15.332031 4.609375 -14.960938 4.328125 -14.671875 C 4.046875 -14.390625 3.660156 -14.25 3.171875 -14.25 C 2.691406 -14.25 2.304688 -14.390625 2.015625 -14.671875 C 1.722656 -14.960938 1.578125 -15.332031 1.578125 -15.78125 Z M 1.578125 -15.78125 "/></g></g></g><g fill="#040b59" fill-opacity="1"><g transform="translate(128.496501, 36.339927)"><g><path d="M 2.1875 0 L 2.1875 -12.21875 L 3.8125 -12.21875 L 4.03125 -10.4375 C 4.5625 -11.164062 5.207031 -11.695312 5.96875 -12.03125 C 6.726562 -12.363281 7.515625 -12.53125 8.328125 -12.53125 C 9.960938 -12.53125 11.234375 -12.007812 12.140625 -10.96875 C 13.054688 -9.9375 13.515625 -8.550781 13.515625 -6.8125 L 13.515625 0 L 11.53125 0 L 11.53125 -6.609375 C 11.53125 -7.859375 11.21875 -8.84375 10.59375 -9.5625 C 9.976562 -10.28125 9.140625 -10.640625 8.078125 -10.640625 C 7.328125 -10.640625 6.65625 -10.453125 6.0625 -10.078125 C 5.476562 -9.710938 5.015625 -9.191406 4.671875 -8.515625 C 4.335938 -7.847656 4.171875 -7.066406 4.171875 -6.171875 L 4.171875 0 Z M 2.1875 0 "/></g></g></g><g fill="#040b59" fill-opacity="1"><g transform="translate(143.586236, 36.339927)"><g><path d="M 7.46875 0 C 6.113281 0 5.0625 -0.382812 4.3125 -1.15625 C 3.570312 -1.925781 3.203125 -3.007812 3.203125 -4.40625 L 3.203125 -10.40625 L 0.640625 -10.40625 L 0.640625 -12.21875 L 1.859375 -12.21875 C 2.421875 -12.21875 2.8125 -12.3125 3.03125 -12.5 C 3.257812 -12.6875 3.40625 -13.054688 3.46875 -13.609375 L 3.65625 -15.265625 L 5.1875 -15.265625 L 5.1875 -12.21875 L 9.140625 -12.21875 L 9.140625 -10.40625 L 5.1875 -10.40625 L 5.1875 -4.5 C 5.1875 -2.769531 5.976562 -1.90625 7.5625 -1.90625 L 9.296875 -1.90625 L 9.296875 0 Z M 7.46875 0 "/></g></g></g><g fill="#040b59" fill-opacity="1"><g transform="translate(153.473391, 36.339927)"><g><path d="M 7.484375 0.3125 C 6.265625 0.3125 5.179688 0.0390625 4.234375 -0.5 C 3.296875 -1.039062 2.554688 -1.796875 2.015625 -2.765625 C 1.484375 -3.742188 1.21875 -4.863281 1.21875 -6.125 C 1.21875 -7.375 1.484375 -8.484375 2.015625 -9.453125 C 2.554688 -10.421875 3.300781 -11.175781 4.25 -11.71875 C 5.195312 -12.257812 6.285156 -12.53125 7.515625 -12.53125 C 8.816406 -12.53125 9.945312 -12.222656 10.90625 -11.609375 C 11.863281 -10.992188 12.597656 -10.148438 13.109375 -9.078125 C 13.617188 -8.003906 13.847656 -6.753906 13.796875 -5.328125 L 3.21875 -5.328125 C 3.382812 -4.179688 3.847656 -3.265625 4.609375 -2.578125 C 5.378906 -1.890625 6.347656 -1.546875 7.515625 -1.546875 C 8.316406 -1.546875 9.046875 -1.71875 9.703125 -2.0625 C 10.359375 -2.414062 10.875 -2.914062 11.25 -3.5625 L 13.5 -3.5625 C 13.007812 -2.363281 12.226562 -1.414062 11.15625 -0.71875 C 10.09375 -0.03125 8.867188 0.3125 7.484375 0.3125 Z M 3.25 -7.0625 L 11.828125 -7.0625 C 11.617188 -8.175781 11.125 -9.054688 10.34375 -9.703125 C 9.570312 -10.347656 8.628906 -10.671875 7.515625 -10.671875 C 6.378906 -10.671875 5.425781 -10.335938 4.65625 -9.671875 C 3.894531 -9.015625 3.425781 -8.144531 3.25 -7.0625 Z M 3.25 -7.0625 "/></g></g></g><g fill="#040b59" fill-opacity="1"><g transform="translate(168.445467, 36.339927)"><g><path d="M 2.1875 0 L 2.1875 -17.421875 L 4.171875 -17.421875 L 4.171875 0 Z M 2.1875 0 "/></g></g></g><g fill="#040b59" fill-opacity="1"><g transform="translate(174.801538, 36.339927)"><g><path d="M 2.1875 0 L 2.1875 -17.421875 L 4.171875 -17.421875 L 4.171875 0 Z M 2.1875 0 "/></g></g></g><g fill="#040b59" fill-opacity="1"><g transform="translate(181.157608, 36.339927)"><g><path d="M 2.1875 0 L 2.1875 -12.21875 L 4.171875 -12.21875 L 4.171875 0 Z M 1.578125 -15.78125 C 1.578125 -16.226562 1.722656 -16.597656 2.015625 -16.890625 C 2.304688 -17.179688 2.691406 -17.328125 3.171875 -17.328125 C 3.660156 -17.328125 4.046875 -17.179688 4.328125 -16.890625 C 4.609375 -16.597656 4.75 -16.226562 4.75 -15.78125 C 4.75 -15.332031 4.609375 -14.960938 4.328125 -14.671875 C 4.046875 -14.390625 3.660156 -14.25 3.171875 -14.25 C 2.691406 -14.25 2.304688 -14.390625 2.015625 -14.671875 C 1.722656 -14.960938 1.578125 -15.332031 1.578125 -15.78125 Z M 1.578125 -15.78125 "/></g></g></g><g fill="#040b59" fill-opacity="1"><g transform="translate(187.513679, 36.339927)"><g><path d="M 7.65625 5.015625 C 6.101562 5.015625 4.804688 4.632812 3.765625 3.875 C 2.734375 3.113281 2.109375 2.082031 1.890625 0.78125 L 3.890625 0.78125 C 4.078125 1.519531 4.5 2.101562 5.15625 2.53125 C 5.8125 2.957031 6.644531 3.171875 7.65625 3.171875 C 8.9375 3.171875 9.929688 2.828125 10.640625 2.140625 C 11.347656 1.453125 11.703125 0.476562 11.703125 -0.78125 L 11.703125 -1.9375 C 11.171875 -1.363281 10.523438 -0.914062 9.765625 -0.59375 C 9.015625 -0.28125 8.203125 -0.125 7.328125 -0.125 C 6.160156 -0.125 5.117188 -0.394531 4.203125 -0.9375 C 3.285156 -1.476562 2.554688 -2.210938 2.015625 -3.140625 C 1.484375 -4.078125 1.21875 -5.140625 1.21875 -6.328125 C 1.21875 -7.523438 1.484375 -8.585938 2.015625 -9.515625 C 2.554688 -10.441406 3.285156 -11.175781 4.203125 -11.71875 C 5.117188 -12.257812 6.160156 -12.53125 7.328125 -12.53125 C 8.253906 -12.53125 9.101562 -12.351562 9.875 -12 C 10.65625 -11.65625 11.3125 -11.179688 11.84375 -10.578125 L 12.0625 -12.21875 L 13.6875 -12.21875 L 13.6875 -0.703125 C 13.6875 0.441406 13.4375 1.445312 12.9375 2.3125 C 12.445312 3.175781 11.75 3.84375 10.84375 4.3125 C 9.9375 4.78125 8.875 5.015625 7.65625 5.015625 Z M 3.203125 -6.328125 C 3.203125 -5.503906 3.382812 -4.765625 3.75 -4.109375 C 4.125 -3.453125 4.640625 -2.941406 5.296875 -2.578125 C 5.953125 -2.222656 6.695312 -2.046875 7.53125 -2.046875 C 8.382812 -2.046875 9.132812 -2.222656 9.78125 -2.578125 C 10.4375 -2.941406 10.945312 -3.453125 11.3125 -4.109375 C 11.6875 -4.765625 11.875 -5.503906 11.875 -6.328125 C 11.875 -7.160156 11.6875 -7.898438 11.3125 -8.546875 C 10.945312 -9.191406 10.4375 -9.695312 9.78125 -10.0625 C 9.132812 -10.4375 8.382812 -10.625 7.53125 -10.625 C 6.695312 -10.625 5.953125 -10.4375 5.296875 -10.0625 C 4.640625 -9.695312 4.125 -9.191406 3.75 -8.546875 C 3.382812 -7.898438 3.203125 -7.160156 3.203125 -6.328125 Z M 3.203125 -6.328125 "/></g></g></g><g fill="#040b59" fill-opacity="1"><g transform="translate(203.380305, 36.339927)"><g><path d="M 7.484375 0.3125 C 6.265625 0.3125 5.179688 0.0390625 4.234375 -0.5 C 3.296875 -1.039062 2.554688 -1.796875 2.015625 -2.765625 C 1.484375 -3.742188 1.21875 -4.863281 1.21875 -6.125 C 1.21875 -7.375 1.484375 -8.484375 2.015625 -9.453125 C 2.554688 -10.421875 3.300781 -11.175781 4.25 -11.71875 C 5.195312 -12.257812 6.285156 -12.53125 7.515625 -12.53125 C 8.816406 -12.53125 9.945312 -12.222656 10.90625 -11.609375 C 11.863281 -10.992188 12.597656 -10.148438 13.109375 -9.078125 C 13.617188 -8.003906 13.847656 -6.753906 13.796875 -5.328125 L 3.21875 -5.328125 C 3.382812 -4.179688 3.847656 -3.265625 4.609375 -2.578125 C 5.378906 -1.890625 6.347656 -1.546875 7.515625 -1.546875 C 8.316406 -1.546875 9.046875 -1.71875 9.703125 -2.0625 C 10.359375 -2.414062 10.875 -2.914062 11.25 -3.5625 L 13.5 -3.5625 C 13.007812 -2.363281 12.226562 -1.414062 11.15625 -0.71875 C 10.09375 -0.03125 8.867188 0.3125 7.484375 0.3125 Z M 3.25 -7.0625 L 11.828125 -7.0625 C 11.617188 -8.175781 11.125 -9.054688 10.34375 -9.703125 C 9.570312 -10.347656 8.628906 -10.671875 7.515625 -10.671875 C 6.378906 -10.671875 5.425781 -10.335938 4.65625 -9.671875 C 3.894531 -9.015625 3.425781 -8.144531 3.25 -7.0625 Z M 3.25 -7.0625 "/></g></g></g><g fill="#040b59" fill-opacity="1"><g transform="translate(218.352381, 36.339927)"><g><path d="M 2.1875 0 L 2.1875 -12.21875 L 3.8125 -12.21875 L 4.03125 -10.4375 C 4.5625 -11.164062 5.207031 -11.695312 5.96875 -12.03125 C 6.726562 -12.363281 7.515625 -12.53125 8.328125 -12.53125 C 9.960938 -12.53125 11.234375 -12.007812 12.140625 -10.96875 C 13.054688 -9.9375 13.515625 -8.550781 13.515625 -6.8125 L 13.515625 0 L 11.53125 0 L 11.53125 -6.609375 C 11.53125 -7.859375 11.21875 -8.84375 10.59375 -9.5625 C 9.976562 -10.28125 9.140625 -10.640625 8.078125 -10.640625 C 7.328125 -10.640625 6.65625 -10.453125 6.0625 -10.078125 C 5.476562 -9.710938 5.015625 -9.191406 4.671875 -8.515625 C 4.335938 -7.847656 4.171875 -7.066406 4.171875 -6.171875 L 4.171875 0 Z M 2.1875 0 "/></g></g></g><g fill="#040b59" fill-opacity="1"><g transform="translate(233.818817, 36.339927)"><g><path d="M 7.515625 0.3125 C 6.285156 0.3125 5.195312 0.0351562 4.25 -0.515625 C 3.3125 -1.066406 2.570312 -1.828125 2.03125 -2.796875 C 1.488281 -3.773438 1.21875 -4.882812 1.21875 -6.125 C 1.21875 -7.363281 1.488281 -8.460938 2.03125 -9.421875 C 2.570312 -10.390625 3.3125 -11.148438 4.25 -11.703125 C 5.195312 -12.253906 6.285156 -12.53125 7.515625 -12.53125 C 8.535156 -12.53125 9.46875 -12.335938 10.3125 -11.953125 C 11.15625 -11.566406 11.867188 -11.03125 12.453125 -10.34375 C 13.035156 -9.664062 13.429688 -8.863281 13.640625 -7.9375 L 11.625 -7.9375 C 11.269531 -8.78125 10.726562 -9.441406 10 -9.921875 C 9.269531 -10.398438 8.441406 -10.640625 7.515625 -10.640625 C 6.679688 -10.640625 5.9375 -10.445312 5.28125 -10.0625 C 4.632812 -9.675781 4.125 -9.140625 3.75 -8.453125 C 3.382812 -7.773438 3.203125 -7 3.203125 -6.125 C 3.203125 -5.238281 3.382812 -4.453125 3.75 -3.765625 C 4.125 -3.085938 4.632812 -2.554688 5.28125 -2.171875 C 5.9375 -1.785156 6.679688 -1.59375 7.515625 -1.59375 C 8.503906 -1.59375 9.367188 -1.851562 10.109375 -2.375 C 10.859375 -2.90625 11.378906 -3.613281 11.671875 -4.5 L 13.78125 -4.5 C 13.363281 -3.019531 12.597656 -1.847656 11.484375 -0.984375 C 10.367188 -0.117188 9.046875 0.3125 7.515625 0.3125 Z M 7.515625 0.3125 "/></g></g></g><g fill="#040b59" fill-opacity="1"><g transform="translate(248.743803, 36.339927)"><g><path d="M 7.484375 0.3125 C 6.265625 0.3125 5.179688 0.0390625 4.234375 -0.5 C 3.296875 -1.039062 2.554688 -1.796875 2.015625 -2.765625 C 1.484375 -3.742188 1.21875 -4.863281 1.21875 -6.125 C 1.21875 -7.375 1.484375 -8.484375 2.015625 -9.453125 C 2.554688 -10.421875 3.300781 -11.175781 4.25 -11.71875 C 5.195312 -12.257812 6.285156 -12.53125 7.515625 -12.53125 C 8.816406 -12.53125 9.945312 -12.222656 10.90625 -11.609375 C 11.863281 -10.992188 12.597656 -10.148438 13.109375 -9.078125 C 13.617188 -8.003906 13.847656 -6.753906 13.796875 -5.328125 L 3.21875 -5.328125 C 3.382812 -4.179688 3.847656 -3.265625 4.609375 -2.578125 C 5.378906 -1.890625 6.347656 -1.546875 7.515625 -1.546875 C 8.316406 -1.546875 9.046875 -1.71875 9.703125 -2.0625 C 10.359375 -2.414062 10.875 -2.914062 11.25 -3.5625 L 13.5 -3.5625 C 13.007812 -2.363281 12.226562 -1.414062 11.15625 -0.71875 C 10.09375 -0.03125 8.867188 0.3125 7.484375 0.3125 Z M 3.25 -7.0625 L 11.828125 -7.0625 C 11.617188 -8.175781 11.125 -9.054688 10.34375 -9.703125 C 9.570312 -10.347656 8.628906 -10.671875 7.515625 -10.671875 C 6.378906 -10.671875 5.425781 -10.335938 4.65625 -9.671875 C 3.894531 -9.015625 3.425781 -8.144531 3.25 -7.0625 Z M 3.25 -7.0625 "/></g></g></g><g fill="#040b59" fill-opacity="1"><g transform="translate(263.315633, 36.339927)"><g><path d="M 3.015625 0.1875 C 2.546875 0.1875 2.164062 0.0390625 1.875 -0.25 C 1.582031 -0.550781 1.4375 -0.921875 1.4375 -1.359375 C 1.4375 -1.816406 1.582031 -2.1875 1.875 -2.46875 C 2.164062 -2.75 2.546875 -2.890625 3.015625 -2.890625 C 3.503906 -2.890625 3.890625 -2.75 4.171875 -2.46875 C 4.460938 -2.1875 4.609375 -1.816406 4.609375 -1.359375 C 4.609375 -0.921875 4.460938 -0.550781 4.171875 -0.25 C 3.890625 0.0390625 3.503906 0.1875 3.015625 0.1875 Z M 3.015625 0.1875 "/></g></g></g><g fill="#040b59" fill-opacity="1"><g transform="translate(269.130231, 36.339927)"><g><path d="M 6.1875 0.1875 C 4.71875 0.1875 3.566406 -0.144531 2.734375 -0.8125 C 1.898438 -1.476562 1.484375 -2.382812 1.484375 -3.53125 C 1.484375 -4.644531 1.867188 -5.53125 2.640625 -6.1875 C 3.410156 -6.851562 4.429688 -7.1875 5.703125 -7.1875 L 10.6875 -7.1875 L 10.6875 -7.625 C 10.6875 -8.582031 10.390625 -9.332031 9.796875 -9.875 C 9.203125 -10.414062 8.382812 -10.6875 7.34375 -10.6875 C 6.5625 -10.6875 5.878906 -10.507812 5.296875 -10.15625 C 4.710938 -9.800781 4.320312 -9.328125 4.125 -8.734375 L 2.125 -8.734375 C 2.382812 -9.910156 2.984375 -10.835938 3.921875 -11.515625 C 4.859375 -12.191406 5.992188 -12.53125 7.328125 -12.53125 C 8.390625 -12.53125 9.320312 -12.328125 10.125 -11.921875 C 10.925781 -11.523438 11.550781 -10.96875 12 -10.25 C 12.445312 -9.539062 12.671875 -8.710938 12.671875 -7.765625 L 12.671875 0 L 11.046875 0 L 10.828125 -1.703125 C 9.710938 -0.441406 8.164062 0.1875 6.1875 0.1875 Z M 3.46875 -3.5625 C 3.46875 -2.957031 3.71875 -2.472656 4.21875 -2.109375 C 4.71875 -1.753906 5.398438 -1.578125 6.265625 -1.578125 C 7.109375 -1.578125 7.859375 -1.738281 8.515625 -2.0625 C 9.179688 -2.394531 9.707031 -2.851562 10.09375 -3.4375 C 10.488281 -4.019531 10.695312 -4.6875 10.71875 -5.4375 L 5.765625 -5.4375 C 5.085938 -5.4375 4.535156 -5.265625 4.109375 -4.921875 C 3.679688 -4.585938 3.46875 -4.132812 3.46875 -3.5625 Z M 3.46875 -3.5625 "/></g></g></g><g fill="#040b59" fill-opacity="1"><g transform="translate(283.725652, 36.339927)"><g><path d="M 2.1875 0 L 2.1875 -12.21875 L 4.171875 -12.21875 L 4.171875 0 Z M 1.578125 -15.78125 C 1.578125 -16.226562 1.722656 -16.597656 2.015625 -16.890625 C 2.304688 -17.179688 2.691406 -17.328125 3.171875 -17.328125 C 3.660156 -17.328125 4.046875 -17.179688 4.328125 -16.890625 C 4.609375 -16.597656 4.75 -16.226562 4.75 -15.78125 C 4.75 -15.332031 4.609375 -14.960938 4.328125 -14.671875 C 4.046875 -14.390625 3.660156 -14.25 3.171875 -14.25 C 2.691406 -14.25 2.304688 -14.390625 2.015625 -14.671875 C 1.722656 -14.960938 1.578125 -15.332031 1.578125 -15.78125 Z M 1.578125 -15.78125 "/></g></g></g></svg>